{"asset":{"version":"2.0","generator":"babylon.js glTF exporter for 3dsmax 2021 v20201119.2"},"scene":0,"scenes":[{"nodes":[0,1]}],"nodes":[{"mesh":0,"name":"Terrain"},{"name":"Default light"}],"meshes":[{"primitives":[{"attributes":{"POSITION":1,"NORMAL":2,"TEXCOORD_0":3},"indices":0,"material":0}],"name":"Terrain"}],"accessors":[{"bufferView":0,"componentType":5125,"count":221262,"type":"SCALAR","name":"accessorIndices"},{"bufferView":1,"componentType":5126,"count":221262,"max":[0.0251753516,0.02171799,0.009057631],"min":[-0.02524038,-0.0217802078,-0.009114301],"type":"VEC3","name":"accessorPositions"},{"bufferView":1,"byteOffset":2655144,"componentType":5126,"count":221262,"type":"VEC3","name":"accessorNormals"},{"bufferView":2,"componentType":5126,"count":221262,"type":"VEC2","name":"accessorUVs"}],"bufferViews":[{"buffer":0,"byteLength":885048,"name":"bufferViewScalar"},{"buffer":0,"byteOffset":885048,"byteLength":5310288,"byteStride":12,"name":"bufferViewFloatVec3"},{"buffer":0,"byteOffset":6195336,"byteLength":1770096,"byteStride":8,"name":"bufferViewFloatVec2"}],"buffers":[{"uri":"Terrain.bin","byteLength":7965432}],"materials":[{"pbrMetallicRoughness":{"baseColorTexture":{"index":0},"metallicFactor":0.0,"roughnessFactor":0.450053632},"alphaMode":"BLEND","name":"02 - Default"}],"textures":[{"sampler":0,"source":0,"name":"Terrain_Color_alpha_Terrain_Alpha.png"}],"images":[{"uri":"./Terrain_Color_alpha_Terrain_Alpha.png"}],"samplers":[{"magFilter":9729,"minFilter":9987}]}